<?xml version="1.0" standalone="no"?>
<!DOCTYPE svg PUBLIC "-//W3C//DTD SVG 20010904//EN" "http://www.w3.org/TR/2001/REC-SVG-20010904/DTD/svg10.dtd">
<svg version="1.0" xmlns="http://www.w3.org/2000/svg" width="401.036" height="257.375" viewBox="0 0 401.036 257.375">
<g transform="translate(0.000000,405.000000) scale(0.100000,-0.100000)">
	<path d="M695.283,4044.257c-226.001-19.004-466.001-98.999-647.998-216.001c-29.004-17.998-50-37.998-47.002-42.998
		s30-22.998,60-40l53.999-31.001l123.003,60c386.997,188.999,800,188.999,1187.998-1.001l125-60.996l62.002,33.999
		c35,18.999,62.998,36.001,62.998,40c0,8.999-152.002,96.997-230,132.998C1222.285,4020.258,947.285,4067.255,695.283,4044.257z"/>
	<path d="M730.283,3815.258c-153.999-13.999-277.002-50-417.998-122.002c-54.004-27.998-75-43.999-68.003-51.997
		c5-6.001,33.999-23.999,65-41.001c48.003-26.001,58.999-27.998,83.003-17.998c15,5.996,56.997,22.998,91.997,37.998
		c151.001,62.998,363.999,82.002,536.001,46.001c85.996-18.003,235-70,262.002-93.003c8.994-6.997,30,0,77.998,28.003
		c35.996,21.001,65,41.001,65,45c0,11.001-147.998,83.999-227.002,111.997C1065.283,3806.259,882.285,3828.256,730.283,3815.258z"/>
	<path d="M651.284,3579.257c-71.001-16.997-177.002-63.999-171.001-73.999c2.998-5,32.998-23.999,67.998-42.998l62.002-35l70,17.998
		c92.998,25,202.998,25,297.998,0l77.002-18.999l65,36.997c35.996,20,65,40,65,43.003c0,11.001-115,57.998-180,72.998
		C923.281,3599.257,731.284,3598.256,651.284,3579.257z"/>
	<path d="M435.283,3085.258l-395-227.998l-2.998-179.009l-2.002-180l396.001-228.994c217.998-126.006,405-233.008,414.995-238.008
		c14.004-5.996,33.008,1.006,79.004,30c32.998,22.002,57.998,44.004,57.002,49.004c-2.002,5.996-175,109.004-385,230l-382.002,220
		l2.002,99.004l2.998,98.003l310,177.998c263.999,152.002,312.002,177.002,330,167.998c10.996-5.996,180-100,375-208.999
		s362.998-201.006,372.998-205c16.006-6.006,17.998,0,15,81.001l-2.998,87.998l-345,199.004c-190,110-367.002,211.997-395,227.998
		l-50,28.999L435.283,3085.258z"/>
	<path d="M758.281,2717.256c-35-20-62.998-39.004-62.998-42.002s170-102.998,377.998-222.002l377.002-215.996l2.998-99.004
		l2.998-97.998l-307.998-182.998l-307.002-182.998l-388.994,222.998c-215,122.998-396.001,223.994-404.004,225.996
		c-10.996,2.998-12.998-15-10.996-93.994l2.998-98.008l395-227.998l393.999-227.002l61.001,34.004
		c32.998,17.998,210.996,120.996,395,227.002l335,193.994l2.998,189.004l2.002,190l-394.004,222.998
		c-216.992,122.002-397.998,222.007-402.998,222.007C824.282,2754.262,792.285,2738.252,758.281,2717.256z"/>
</g>
<text transform="matrix(1 0 0 1 337.0278 212.0645)" font-family="Arial Black" font-size="24">.com</text>
<text transform="matrix(1 0 0 1 177.0283 211.9278)" font-family="Arial Black" font-size="32">SIGNALS</text>
<text transform="matrix(1 0 0 1 177.0288 179.9278)" font-family="Arial Black" font-size="32">CITY</text>
<text transform="matrix(1 0 0 1 177.0283 147.9278)" font-family="Arial Black" font-size="32">SMART</text>
</svg>